<?xml version="1.0" encoding="utf-8"?>
<!-- Generator: Adobe Illustrator 16.0.0, SVG Export Plug-In . SVG Version: 6.00 Build 0)  -->
<!DOCTYPE svg PUBLIC "-//W3C//DTD SVG 1.1//EN" "http://www.w3.org/Graphics/SVG/1.1/DTD/svg11.dtd">
<svg version="1.1" id="Layer_1" xmlns:inkscape="http://www.inkscape.org/namespaces/inkscape"
	 xmlns="http://www.w3.org/2000/svg" xmlns:xlink="http://www.w3.org/1999/xlink" x="0px" y="0px" width="200px" height="200px"
	 viewBox="0 0 200 200" enable-background="new 0 0 200 200" xml:space="preserve">
<defs>
	
	<inkscape:path-effect></inkscape:path-effect>
</defs>
<path fill="#CCAC00" d="M105.291,142.315c0,13.192-3.377,23.888-7.543,23.888c-4.166,0-7.543-10.694-7.543-23.887v-0.001
	c0-13.192,3.377-23.888,7.543-23.888C101.914,118.428,105.291,129.123,105.291,142.315z"/>
<path fill="#CCAC00" d="M105.141,76.771c0.001,13.193-3.377,23.889-7.543,23.889s-7.543-10.695-7.543-23.888c0,0,0,0,0-0.001
	c0-13.193,3.377-23.888,7.543-23.888S105.141,63.579,105.141,76.771z"/>
<path fill="#CCAC00" d="M131.273,117.389c-13.185-0.471-23.752-4.229-23.604-8.393c0.148-4.163,10.957-7.156,24.142-6.685
	c0.001,0,0.001,0,0.001,0c13.184,0.472,23.752,4.229,23.604,8.393C155.267,114.867,144.458,117.86,131.273,117.389z"/>
<path fill="#CCAC00" d="M64.846,116.83c-13.185-0.472-23.752-4.229-23.604-8.393c0.148-4.164,10.957-7.156,24.142-6.686c0,0,0,0,0,0
	c13.185,0.472,23.752,4.229,23.604,8.393C88.839,114.309,78.03,117.301,64.846,116.83z"/>
<path fill="#CCAC00" d="M81.951,140.191c-11.941,12.025-24.699,18.718-28.497,14.947s2.803-16.576,14.744-28.602h0
	c11.941-12.025,24.699-18.717,28.497-14.946C100.493,115.361,93.892,128.166,81.951,140.191z"/>
<path fill="#CCAC00" d="M127.75,93.494c-11.94,12.025-24.699,18.717-28.497,14.947c-3.798-3.771,2.803-16.576,14.745-28.602
	c0,0,0,0,0-0.001c11.941-12.025,24.699-18.717,28.496-14.946C146.293,68.663,139.691,81.469,127.75,93.494z"/>
<path fill="#CCAC00" d="M111.453,138.629c-11.592-12.361-17.824-25.352-13.92-29.012s16.465,3.394,28.057,15.756
	c0,0.001,0,0.001,0,0.001c11.592,12.362,17.824,25.353,13.92,29.013S123.044,150.992,111.453,138.629z"/>
<path fill="#CCAC00" d="M69.903,95.667C58.312,83.305,52.08,70.315,55.983,66.655c3.904-3.661,16.466,3.394,28.057,15.756l0,0
	c11.592,12.363,17.824,25.352,13.919,29.012C94.057,115.084,81.495,108.029,69.903,95.667z"/>
<path fill="#FFFFFF" d="M109.564,109.736c0,6.744-5.467,12.213-12.211,12.213s-12.212-5.469-12.212-12.213l0,0
	c0-6.744,5.468-12.212,12.212-12.212S109.564,102.992,109.564,109.736z"/>
<defs>
	<filter id="Adobe_OpacityMaskFilter" filterUnits="userSpaceOnUse" x="22.5" y="33.5" width="150" height="151">
		<feColorMatrix  type="matrix" values="1 0 0 0 0  0 1 0 0 0  0 0 1 0 0  0 0 0 1 0"/>
	</filter>
</defs>
<mask maskUnits="userSpaceOnUse" x="22.5" y="33.5" width="150" height="151" id="SVGID_1_">
	<g filter="url(#Adobe_OpacityMaskFilter)">
	</g>
</mask>
<ellipse mask="url(#SVGID_1_)" fill="#CCAC00" cx="97.5" cy="109" rx="75" ry="75.5"/>
</svg>
